<?xml version="1.0" standalone="no"?>
<!DOCTYPE svg PUBLIC "-//W3C//DTD SVG 1.1//EN" "http://www.w3.org/Graphics/SVG/1.1/DTD/svg11.dtd">
<svg t="1695454272726" viewBox="0 0 1024 1024" version="1.1"
    xmlns="http://www.w3.org/2000/svg" p-id="4085" xmlns:xlink="http://www.w3.org/1999/xlink"
    >
    <path
        d="M563.072 376.48a79.456 79.456 0 0 0 28.928-61.12 80 80 0 1 0-160 0c0 24.672 11.392 46.432 28.928 61.12l-202.88 540.256a32 32 0 1 0 59.904 22.496l49.28-131.264h289.504l49.28 131.264a32.064 32.064 0 0 0 41.248 18.752c16.544-6.208 24.896-24.672 18.72-41.216l-202.912-540.288z m-1.312 178.624h-99.552L512 422.56l49.76 132.544z m-170.464 188.896l46.912-124.896h147.616l46.912 124.896h-241.44zM662.464 417.408a32 32 0 1 0 53.12 35.648 254.72 254.72 0 0 0 43.136-142.304 255.04 255.04 0 0 0-43.136-142.304 32 32 0 1 0-53.12 35.68 190.944 190.944 0 0 1 32.288 106.624 190.816 190.816 0 0 1-32.288 106.656zM289.888 453.024a32 32 0 1 0 53.184-35.616 191.36 191.36 0 0 1-32.32-106.656 191.328 191.328 0 0 1 32.32-106.656 32.064 32.064 0 0 0-8.768-44.416 32.096 32.096 0 0 0-44.416 8.768 254.976 254.976 0 0 0-43.136 142.304 254.976 254.976 0 0 0 43.136 142.272zM210.656 117.12A32 32 0 1 0 157.44 81.536a420.032 420.032 0 0 0-70.848 233.824 419.744 419.744 0 0 0 70.88 233.856 31.936 31.936 0 0 0 44.416 8.768 32 32 0 0 0 8.768-44.416 355.168 355.168 0 0 1-60.032-198.24A355.36 355.36 0 0 1 210.656 117.12zM896.224 154.304a416.96 416.96 0 0 0-38.912-72.768 32 32 0 1 0-53.184 35.584 354.912 354.912 0 0 1 60.064 198.24 355.2 355.2 0 0 1-60.064 198.208 32.032 32.032 0 0 0 53.184 35.648 418.816 418.816 0 0 0 70.88-233.856c0-55.68-10.752-109.856-31.968-161.056z"
        p-id="4086"></path>
</svg>