<svg xmlns="http://www.w3.org/2000/svg" viewBox="0 0 40 50">
    <path id="path1" fill-rule="evenodd"
          d="M22.8962 1.47449C22.2922 0.898876 21.3227 0.93224 20.7666 1.5158L1.9371 21.2751C1.59563 21.6334 1.46723 22.1166 1.54829 22.5748C1.5089 23.0159 1.66018 23.4824 1.99804 23.8044L21.7573 42.6339C22.3614 43.2095 23.3111 43.1866 23.8865 42.5726C24.4621 41.9685 24.4387 40.9988 23.8451 40.4429L4.98681 22.472L22.9575 3.60363C23.5334 3.00959 23.5105 2.05987 22.8962 1.47449Z"></path>
    <path id="path2"
          d="M22.2064,2.19843c-0.1004,-0.09568 -0.22337,-0.14177 -0.3689,-0.13826c-0.14213,0.00343 -0.2578,0.05193 -0.347,0.1455l-18.82947,19.75933c-0.11533,0.121 -0.158,0.2662 -0.12803,0.4356l0.02314,0.1308l-0.01181,0.1324c-0.01535,0.17187 0.03251,0.31073 0.14358,0.4166l19.75929,18.8295c0.10173,0.09693 0.2211,0.14353 0.3581,0.1398c0.13733,-0.00373 0.2545,-0.05737 0.3515,-0.1609c0.10147,-0.10653 0.1507,-0.2326 0.1477,-0.3782c-0.00293,-0.13867 -0.05057,-0.25127 -0.1429,-0.3378l-19.5884,-18.6666l18.6602,-19.59224c0.09707,-0.10019 0.1438,-0.21713 0.1402,-0.35082c-0.00387,-0.14059 -0.0596,-0.26216 -0.1672,-0.36472zM23.5861,0.75057c0.24733,0.23566 0.43903,0.50802 0.5751,0.81707c0.13213,0.30017 0.20267,0.61378 0.2116,0.94084c0.009,0.32812 -0.04467,0.64486 -0.161,0.95022c-0.12047,0.31615 -0.29717,0.59435 -0.5301,0.8346l-17.97077,18.8683l-0.72412,-0.6896l0.68987,-0.724l18.85202,17.965c0.24753,0.23187 0.43857,0.50443 0.5731,0.8177c0.128,0.298 0.1954,0.6107 0.2022,0.9381c0.0068,0.32647 -0.04713,0.64203 -0.1618,0.9467c-0.11987,0.3184 -0.2952,0.59867 -0.526,0.8408c-0.23387,0.24953 -0.50553,0.4429 -0.815,0.5801c-0.2996,0.13273 -0.61333,0.2036 -0.9412,0.2126c-0.32727,0.00893 -0.6439,-0.04447 -0.9499,-0.1602c-0.31553,-0.11933 -0.59643,-0.29633 -0.8427,-0.531l-19.75923,-18.8295c-0.28067,-0.26747 -0.48702,-0.58747 -0.61903,-0.96c-0.12436,-0.35093 -0.16998,-0.71173 -0.13688,-1.0824l0.99603,0.0889l-0.98471,0.1742c-0.06831,-0.38607 -0.04823,-0.7661 0.06025,-1.1401c0.11267,-0.3884 0.30912,-0.72963 0.58932,-1.0237l18.82954,-19.75926c0.2314,-0.24285 0.50267,-0.43067 0.8138,-0.56346c0.29673,-0.12665 0.6077,-0.1939 0.9329,-0.20173c0.3266,-0.00787 0.64207,0.04484 0.9464,0.15814c0.31993,0.11912 0.60337,0.29634 0.8503,0.53167z"></path>
</svg>