<?xml version="1.0" standalone="no"?><!DOCTYPE svg PUBLIC "-//W3C//DTD SVG 1.1//EN" "http://www.w3.org/Graphics/SVG/1.1/DTD/svg11.dtd">
<svg t="1700486140418" viewBox="0 0 1024 1024" version="1.1"
  xmlns="http://www.w3.org/2000/svg" p-id="11633"
  xmlns:xlink="http://www.w3.org/1999/xlink">
    <path d="M760.38753 360.978417h175.332374a24.556355 24.556355 0 0 0 24.556355-24.556355V24.556355a24.556355 24.556355 0 0 0-24.556355-24.556355h-175.332374a24.556355 24.556355 0 0 0-24.556355 24.556355v58.198561H288.168825V24.556355a24.556355 24.556355 0 0 0-24.556355-24.556355H88.280096a24.556355 24.556355 0 0 0-24.556355 24.556355v311.865707a24.556355 24.556355 0 0 0 24.556355 24.556355h175.332374a24.556355 24.556355 0 0 0 24.556355-24.556355v-81.772662h137.515587v102.891128a57.707434 57.707434 0 0 0-41.991366 16.943884l-10.068106 10.068106a58.198561 58.198561 0 0 0 0 82.509353l45.429257 45.429256-45.429257 45.429257a58.198561 58.198561 0 0 0 0 82.509352l10.068106 9.822542a57.461871 57.461871 0 0 0 41.254676 17.189449v102.891127H288.168825V687.577938a24.556355 24.556355 0 0 0-24.556355-24.556355H88.280096a24.556355 24.556355 0 0 0-24.556355 24.556355v311.865707a24.556355 24.556355 0 0 0 24.556355 24.556355h175.332374a24.556355 24.556355 0 0 0 24.556355-24.556355v-57.216307h447.66235v57.216307a24.556355 24.556355 0 0 0 24.556355 24.556355h175.332374a24.556355 24.556355 0 0 0 24.556355-24.556355V687.577938a24.556355 24.556355 0 0 0-24.556355-24.556355h-175.332374a24.556355 24.556355 0 0 0-24.556355 24.556355v82.754916h-138.252278v-102.891127a57.952998 57.952998 0 0 0 41.009113-16.943885l10.068105-10.068106a58.198561 58.198561 0 0 0 0-82.509352L603.963549 512.491127 649.392806 466.570743a58.198561 58.198561 0 0 0 0-82.509352l-10.068106-10.068106a57.707434 57.707434 0 0 0-41.745803-16.943885v-102.4h138.252278v81.772662a24.556355 24.556355 0 0 0 24.556355 24.556355z m24.556355-311.865707h126.219664v262.752997h-126.219664zM239.056115 311.865707H112.836451V49.11271h126.219664zM407.51271 432.191847a9.576978 9.576978 0 0 1 0-13.014869l10.068105-10.068105a9.331415 9.331415 0 0 1 6.630216-2.455636 9.085851 9.085851 0 0 1 6.384652 2.455636l45.429257 45.429256-23.082974 23.082974z m103.382254 57.216306l23.082974 23.082974-23.082974 23.082974-23.082974-23.082974z m-93.314149 126.219665l-10.068105-10.068106a9.576978 9.576978 0 0 1 0-13.014868l45.429256-45.429256 23.082974 23.082973L432.069065 615.627818a9.576978 9.576978 0 0 1-13.751559 0zM239.056115 974.88729H112.836451V712.134293h126.219664zM784.943885 712.134293h126.219664v262.752997h-126.219664z m-49.11271 107.311271v73.669064H288.168825v-73.669064z m-261.034053-49.11271v-128.6753l36.834533-36.834532 36.834532 36.834532v128.6753z m139.971223-177.78801a9.576978 9.576978 0 0 1 0 13.014868l-10.068105 10.068106a9.576978 9.576978 0 0 1-13.014868 0l-45.429257-45.429257 23.082974-23.082973zM603.963549 409.354436l10.068106 9.822542a9.576978 9.576978 0 0 1 0 13.014869l-45.429257 45.429256-23.082974-23.082974 45.429257-45.429256a9.331415 9.331415 0 0 1 13.014868 0.245563z m-55.497362-26.275299l-36.834532 36.834532-36.834533-36.834532v-128.429737h73.669065zM288.168825 205.536691v-73.669065h447.66235v73.669065z" p-id="11634"></path>
</svg>