<?xml version="1.0" standalone="no"?><!DOCTYPE svg PUBLIC "-//W3C//DTD SVG 1.1//EN" "http://www.w3.org/Graphics/SVG/1.1/DTD/svg11.dtd">
<svg t="1695454833265" class="icon" viewBox="0 0 1024 1024" version="1.1"
    xmlns="http://www.w3.org/2000/svg" p-id="6203"
    xmlns:xlink="http://www.w3.org/1999/xlink">
    <path d="M151.05024 913.92a40.97024 40.97024 0 0 1-37.57568-57.28768l218.68544-503.23968a40.99584 40.99584 0 0 1 21.24288-21.24288l503.23456-218.68032a40.96 40.96 0 0 1 53.94944 53.76l-217.22112 504.69376a40.99584 40.99584 0 0 1-21.43232 21.43232l-504.69888 217.23136a40.96 40.96 0 0 1-16.18432 3.33312zM400.86016 400.85504l-171.04384 393.60512 394.752-169.9072 169.90208-394.74688-393.61024 171.04896z" p-id="6204"></path>
    <path d="M512 512m-76.8 0a76.8 76.8 0 1 0 153.6 0 76.8 76.8 0 1 0-153.6 0Z" p-id="6205"></path>
</svg>