<?xml version="1.0" standalone="no"?><!DOCTYPE svg PUBLIC "-//W3C//DTD SVG 1.1//EN" "http://www.w3.org/Graphics/SVG/1.1/DTD/svg11.dtd">
<svg t="1700406166444" class="icon" viewBox="0 0 1024 1024" version="1.1"
    xmlns="http://www.w3.org/2000/svg" p-id="1475"
    xmlns:xlink="http://www.w3.org/1999/xlink">
    <path d="M391.253333 725.333333a128.042667 128.042667 0 0 1 241.493334 0H853.333333l42.666667 42.666667-42.666667 42.666667h-220.586666a128.042667 128.042667 0 0 1-241.493334 0H128l42.666667-42.666667-42.666667-42.666667h263.253333zM512 810.666667a42.666667 42.666667 0 1 0 0-85.333334 42.666667 42.666667 0 0 0 0 85.333334z m85.333333-298.666667l-85.333333 85.333333-85.333333-85.333333H298.666667a85.333333 85.333333 0 0 1-85.333334-85.333333V213.333333a85.333333 85.333333 0 0 1 85.333334-85.333333h426.666666a85.333333 85.333333 0 0 1 85.333334 85.333333v213.333334a85.333333 85.333333 0 0 1-85.333334 85.333333h-128zM298.666667 213.333333v213.333334h170.666666l42.666667 42.666666 42.666667-42.666666h170.666666V213.333333H298.666667z" p-id="1476"></path>
</svg>