<?xml version="1.0" standalone="no"?>
<svg t="1695793811140" viewBox="0 0 1024 1024" version="1.1"
    xmlns="http://www.w3.org/2000/svg" p-id="4005" xmlns:xlink="http://www.w3.org/1999/xlink">
    <path
    class="user-path"
        d="M512 64a224 224 0 1 0 0 448 224 224 0 0 0 0-448z m0 96a128 128 0 1 1 0 256 128 128 0 0 1 0-256z m336 800a32 32 0 0 1-32-32v-16c0-5.44-0.16-10.816-0.512-16.16-8.768-132.864-124.736-241.408-273.28-254.528-7.008-0.64-14.08-1.024-21.248-1.184L512 640c-6.4 0-12.8 0.16-19.136 0.512-129.824 7.2-236.736 87.2-272.256 193.888a249.088 249.088 0 0 0-12.32 77.6v16a32 32 0 0 1-32 32H144a32 32 0 0 1-32-32v-16c0-34.912 5.248-68.672 15.072-100.608 45.44-150.304 190.592-258.368 363.008-266.88a448.48 448.48 0 0 1 43.968 0.032c201.984 10.048 367.136 157.6 377.44 348.48 0.32 6.432 0.512 12.704 0.512 18.976v16a32 32 0 0 1-32 32h-32z"
        p-id="4006"></path>
</svg>