<svg xmlns="http://www.w3.org/2000/svg" xmlns:xlink="http://www.w3.org/1999/xlink" width="46.54998779296875" height="37.429931640625" viewBox="0 0 46.54998779296875 37.429931640625" fill="none"><path id="路径 1" fill-rule="evenodd" style="fill:#E3E3E3" opacity="0.8" d="M2.39,4.65c-1.32,0 -2.39,-1.04 -2.39,-2.32c0,-1.29 1.07,-2.33 2.39,-2.33h41.77c1.32,0 2.39,1.04 2.39,2.33c0,1.28 -1.07,2.32 -2.39,2.32zM44.16,16.29c1.31,0 2.39,1.04 2.39,2.33c0,1.28 -1.07,2.33 -2.39,2.33h-41.77c-1.32,0 -2.39,-1.05 -2.39,-2.33c0,-1.29 1.07,-2.33 2.39,-2.33zM44.16,32.77c1.32,0 2.39,1.05 2.39,2.33c0,1.29 -1.07,2.33 -2.39,2.33h-41.77c-1.32,0 -2.39,-1.04 -2.39,-2.33c0,-1.28 1.07,-2.33 2.39,-2.33z"></path></svg>