<?xml version="1.0" standalone="no"?>
<!DOCTYPE svg PUBLIC "-//W3C//DTD SVG 1.1//EN" "http://www.w3.org/Graphics/SVG/1.1/DTD/svg11.dtd">
<svg xmlns="http://www.w3.org/2000/svg" xmlns:xlink="http://www.w3.org/1999/xlink" width="52.98858642578125" height="47.963134765625" viewBox="0 0 52.98858642578125 47.963134765625" fill="none"><path id="路径 1" fill-rule="evenodd" style="fill:#E3E3E3" opacity="1" d="M36.83,23.8c0,0 -9.78,-7.59 -9.43,-13.89c0.31,-5.46 4.23,-9.91 9.43,-9.91c5.21,0 9.39,4.43 9.43,9.91c0.04,6.3 -9.43,13.89 -9.43,13.89zM32.55,9.61c0,2.47 1.85,4.47 4.13,4.47c2.28,0 4.12,-2 4.12,-4.47c0,-2.46 -1.84,-4.46 -4.12,-4.46c-2.28,0 -4.13,2 -4.13,4.46zM24.84,32.29c-3.81,6.54 -11.32,12.34 -11.32,12.34c0,0 -7.46,-5.57 -11.28,-11.95c-0.82,-1.23 -1.45,-2.6 -1.82,-4.08c-0.2,-0.72 -0.33,-1.45 -0.37,-2.16c-0.03,-0.39 -0.05,-0.77 -0.05,-1.16c0,-7.39 6,-13.38 13.41,-13.38c0.02,0 0.04,0 0.06,0c0.01,0 0.03,0 0.05,0c7.43,0 13.41,6.1 13.46,13.62c0.02,1.67 -0.47,3.4 -1.28,5.12c-0.25,0.57 -0.54,1.12 -0.86,1.65zM18.8,23.8c0,-3.28 -2.47,-5.95 -5.51,-5.95c-3.03,0 -5.5,2.67 -5.5,5.95c0,3.29 2.47,5.95 5.5,5.95c3.04,0 5.51,-2.66 5.51,-5.95zM49.03,33.19c10.59,2.17 -0.19,22.65 -30.87,11.44l2.75,-2.97c0,0 19.19,6.22 27.27,-0.87c9.14,-8.01 -14.36,-4.55 -12.88,-14.01h2.75c0,0 -2.65,3.62 10.98,6.41z"></path></svg>